<mxfile host="app.diagrams.net" agent="Mozilla/5.0 (Windows NT 10.0; Win64; x64) AppleWebKit/537.36 (KHTML, like Gecko) Chrome/125.0.0.0 Safari/537.36" version="24.7.5">
  <diagram name="Page-1" id="y3nSxOi1oGvmX9CvUGN1">
    <mxGraphModel dx="1434" dy="780" grid="1" gridSize="10" guides="1" tooltips="1" connect="1" arrows="1" fold="1" page="1" pageScale="1" pageWidth="850" pageHeight="1100" math="0" shadow="0">
      <root>
        <mxCell id="0" />
        <mxCell id="1" parent="0" />
        <mxCell id="UMnjD2So-exEDhG5ul0h-8" value="" style="group" vertex="1" connectable="0" parent="1">
          <mxGeometry x="330" y="10" width="160" height="370" as="geometry" />
        </mxCell>
        <mxCell id="UMnjD2So-exEDhG5ul0h-5" value="Las credenciales son correctas?" style="rhombus;whiteSpace=wrap;html=1;" vertex="1" parent="UMnjD2So-exEDhG5ul0h-8">
          <mxGeometry y="240" width="160" height="130" as="geometry" />
        </mxCell>
        <mxCell id="UMnjD2So-exEDhG5ul0h-6" value="" style="group" vertex="1" connectable="0" parent="UMnjD2So-exEDhG5ul0h-8">
          <mxGeometry x="20" width="120" height="190" as="geometry" />
        </mxCell>
        <mxCell id="UMnjD2So-exEDhG5ul0h-1" value="LOGIN VIDA SALUD&lt;div&gt;&lt;br&gt;&lt;/div&gt;" style="ellipse;whiteSpace=wrap;html=1;" vertex="1" parent="UMnjD2So-exEDhG5ul0h-6">
          <mxGeometry width="120" height="80" as="geometry" />
        </mxCell>
        <mxCell id="UMnjD2So-exEDhG5ul0h-3" value="Introducir Credenciales" style="rounded=0;whiteSpace=wrap;html=1;" vertex="1" parent="UMnjD2So-exEDhG5ul0h-6">
          <mxGeometry y="130" width="120" height="60" as="geometry" />
        </mxCell>
        <mxCell id="UMnjD2So-exEDhG5ul0h-4" value="" style="endArrow=classic;html=1;rounded=0;exitX=0.5;exitY=1;exitDx=0;exitDy=0;entryX=0.5;entryY=0;entryDx=0;entryDy=0;" edge="1" parent="UMnjD2So-exEDhG5ul0h-6" source="UMnjD2So-exEDhG5ul0h-1" target="UMnjD2So-exEDhG5ul0h-3">
          <mxGeometry width="50" height="50" relative="1" as="geometry">
            <mxPoint x="75" y="120" as="sourcePoint" />
            <mxPoint x="125" y="70" as="targetPoint" />
          </mxGeometry>
        </mxCell>
        <mxCell id="UMnjD2So-exEDhG5ul0h-7" value="" style="endArrow=classic;html=1;rounded=0;exitX=0.5;exitY=1;exitDx=0;exitDy=0;" edge="1" parent="UMnjD2So-exEDhG5ul0h-8" source="UMnjD2So-exEDhG5ul0h-3" target="UMnjD2So-exEDhG5ul0h-5">
          <mxGeometry width="50" height="50" relative="1" as="geometry">
            <mxPoint x="130" y="220" as="sourcePoint" />
            <mxPoint x="180" y="170" as="targetPoint" />
          </mxGeometry>
        </mxCell>
      </root>
    </mxGraphModel>
  </diagram>
</mxfile>
